<svg width="32" height="32" viewBox="0 0 32 32" fill="none" xmlns="http://www.w3.org/2000/svg">
<rect width="32" height="32" rx="2" transform="matrix(-1 0 0 1 32 0)" fill="#3BBEF6"/>
<path d="M19.2607 12.4313L19.2607 12.4313C19.3714 12.3439 19.4375 12.2088 19.4375 12.0663L19.4375 11.0315V11.0311H19.1875L19.2607 12.4313ZM19.2607 12.4313L19.2597 12.4321M19.2607 12.4313L19.2597 12.4321M19.2597 12.4321L14.6906 15.9998L19.2582 19.5664C19.2585 19.5666 19.2588 19.5669 19.2592 19.5671C19.3753 19.6569 19.4375 19.7943 19.4375 19.9333L19.4375 20.9686C19.4375 21.2666 19.0942 21.4334 18.8604 21.2496C18.8602 21.2495 18.8601 21.2494 18.8599 21.2493L12.8235 16.5344C12.8234 16.5344 12.8234 16.5344 12.8233 16.5344C12.7421 16.471 12.6764 16.3899 12.6312 16.2973C12.586 16.2047 12.5625 16.1029 12.5625 15.9998C12.5625 15.8967 12.586 15.795 12.6312 15.7024C12.6764 15.6098 12.7421 15.5287 12.8233 15.4653C12.8234 15.4653 12.8234 15.4652 12.8235 15.4652L18.8601 10.7503L19.2597 12.4321Z" fill="black" stroke="black" stroke-width="0.5"/>
</svg>
