<svg width="32" height="32" viewBox="0 0 32 32" fill="none" xmlns="http://www.w3.org/2000/svg">
<rect width="32" height="32" rx="2" fill="#3BBEF6"/>
<path d="M12.7393 12.4313L12.7393 12.4313C12.6286 12.3439 12.5625 12.2088 12.5625 12.0663L12.5625 11.0315V11.0311H12.8125L12.7393 12.4313ZM12.7393 12.4313L12.7403 12.4321M12.7393 12.4313L12.7403 12.4321M12.7403 12.4321L17.3094 15.9998L12.7418 19.5664C12.7415 19.5666 12.7412 19.5669 12.7408 19.5671C12.6247 19.6569 12.5625 19.7943 12.5625 19.9333L12.5625 20.9686C12.5625 21.2666 12.9058 21.4334 13.1396 21.2496C13.1398 21.2495 13.1399 21.2494 13.1401 21.2493L19.1765 16.5344C19.1766 16.5344 19.1766 16.5344 19.1767 16.5344C19.2579 16.471 19.3236 16.3899 19.3688 16.2973C19.414 16.2047 19.4375 16.1029 19.4375 15.9998C19.4375 15.8967 19.414 15.795 19.3688 15.7024C19.3236 15.6098 19.2579 15.5287 19.1767 15.4653C19.1766 15.4653 19.1766 15.4652 19.1765 15.4652L13.1399 10.7503L12.7403 12.4321Z" fill="black" stroke="black" stroke-width="0.5"/>
</svg>
