<svg width="23" height="22" viewBox="0 0 23 22" fill="none" xmlns="http://www.w3.org/2000/svg">
<path d="M17.7239 3.39052C18.2446 2.86983 19.0888 2.86983 19.6095 3.39052C20.1302 3.91122 20.1302 4.75544 19.6095 5.27614L13.8856 11L19.6095 16.7239C20.1302 17.2446 20.1302 18.0888 19.6095 18.6095C19.0888 19.1302 18.2446 19.1302 17.7239 18.6095L12 12.8856L6.27614 18.6095C5.75544 19.1302 4.91122 19.1302 4.39052 18.6095C3.86983 18.0888 3.86983 17.2446 4.39052 16.7239L10.1144 11L4.39052 5.27614C3.86983 4.75544 3.86983 3.91122 4.39052 3.39052C4.91122 2.86983 5.75544 2.86983 6.27614 3.39052L12 9.11438L17.7239 3.39052Z" fill="#0E0E0E"/>
</svg>
