<svg width="59" height="39" viewBox="0 0 59 39" fill="none" xmlns="http://www.w3.org/2000/svg">
<path d="M43.3735 0V3.87242H45.7225C47.1395 3.87242 48.2881 5.02611 48.2881 6.44931V31.5988C48.2881 33.022 47.1395 34.1757 45.7225 34.1757H43.3735V38.1805H47.6762C50.4018 38.1805 52.6096 35.963 52.6096 33.2253V24.9036C52.6096 22.9839 54.1584 21.4236 56.0744 21.4236H58.1268V16.9507H55.806C53.8948 16.9507 52.6473 15.6977 52.6473 13.7781V5.2578C52.6473 2.52488 50.1382 0 47.4125 0H43.3735Z" fill="#3BBEF6"/>
<path d="M39.7864 25.0313C43.0518 25.0313 45.699 22.3724 45.699 19.0926C45.699 15.8128 43.0518 13.1539 39.7864 13.1539C36.5209 13.1539 33.8737 15.8128 33.8737 19.0926C33.8737 22.3724 36.5209 25.0313 39.7864 25.0313Z" fill="#3BBEF6"/>
<path d="M15.6274 0V3.87242H13.2783C11.8614 3.87242 10.7127 5.02611 10.7127 6.44931V31.5988C10.7127 33.022 11.8614 34.1757 13.2783 34.1757H15.6274V38.1805H11.3247C8.59906 38.1805 6.39123 35.963 6.39123 33.2253V24.9036C6.39123 22.9839 4.84246 21.4236 2.9265 21.4236H0.874023V16.9507H3.19483C5.10608 16.9507 6.35357 15.6977 6.35357 13.7781V5.2578C6.35357 2.52488 8.86739 0 11.5883 0H15.6274Z" fill="#3BBEF6"/>
<path d="M19.2145 25.0313C22.48 25.0313 25.1272 22.3724 25.1272 19.0926C25.1272 15.8128 22.48 13.1539 19.2145 13.1539C15.949 13.1539 13.3019 15.8128 13.3019 19.0926C13.3019 22.3724 15.949 25.0313 19.2145 25.0313Z" fill="#3BBEF6"/>
</svg>
