<svg width="16" height="18" viewBox="0 0 16 18" fill="none" xmlns="http://www.w3.org/2000/svg">
<path d="M7.99955 11.5C5.35782 11.5 3.00855 12.7755 1.51288 14.755C1.19097 15.181 1.03002 15.394 1.03528 15.6819C1.03935 15.9043 1.17902 16.1849 1.35402 16.3222C1.58054 16.5 1.89444 16.5 2.52224 16.5H13.4769C14.1047 16.5 14.4186 16.5 14.6451 16.3222C14.8201 16.1849 14.9598 15.9043 14.9638 15.6819C14.9691 15.394 14.8081 15.181 14.4862 14.755C12.9906 12.7755 10.6413 11.5 7.99955 11.5Z" stroke="#1C65BA" stroke-width="2" stroke-linecap="round" stroke-linejoin="round"/>
<path d="M7.99955 9C10.0706 9 11.7496 7.32107 11.7496 5.25C11.7496 3.17893 10.0706 1.5 7.99955 1.5C5.92848 1.5 4.24955 3.17893 4.24955 5.25C4.24955 7.32107 5.92848 9 7.99955 9Z" stroke="#1C65BA" stroke-width="2" stroke-linecap="round" stroke-linejoin="round"/>
</svg>
